<?xml version="1.0" encoding="UTF-8"?>
<svg version="1.1" xmlns="http://www.w3.org/2000/svg" width="1254" height="1254">
<path d="M0 0 C413.82 0 827.64 0 1254 0 C1254 413.82 1254 827.64 1254 1254 C840.18 1254 426.36 1254 0 1254 C0 840.18 0 426.36 0 0 Z " fill="#FDFDFD" transform="translate(0,0)"/>
<path d="M0 0 C1.02673828 0.90492188 1.02673828 0.90492188 2.07421875 1.828125 C7.48861945 6.90219194 11.3080472 12.59337602 15 19 C15.4640625 19.76828125 15.928125 20.5365625 16.40625 21.328125 C24.8907726 36.53818381 26.34630289 55.32593032 21.97973633 71.98486328 C18.63828412 83.33492748 12.96715259 94.23101406 5 103 C4.01966797 104.11761719 4.01966797 104.11761719 3.01953125 105.2578125 C-9.61438485 118.83524511 -27.2646301 126.37483043 -45.640625 127.25390625 C-65.80680707 127.89152626 -84.04553233 121.93888413 -99 108 C-112.34331533 95.19309936 -121.89671795 76.71394145 -122.29296875 57.99462891 C-122.4391948 37.44621389 -117.19341393 20.30283403 -103.53125 4.55859375 C-75.4486282 -23.82738971 -30.13423805 -26.86523787 0 0 Z " fill="#071A40" transform="translate(677,304)"/>
<path d="M0 0 C1.02931641 -0.020625 2.05863281 -0.04125 3.11914062 -0.0625 C12.9728621 -0.1123607 21.09121845 2.21322777 29.6875 6.9375 C30.32695557 7.28562744 30.96641113 7.63375488 31.62524414 7.99243164 C49.69390982 18.09824931 61.65666798 33.85484197 67.27734375 53.62109375 C72.08099066 72.77383187 68.44638393 92.39638824 58.37109375 109.296875 C47.37932677 125.01843261 33.55005206 134.79861736 15.1875 140.25 C13.9809375 140.61931641 13.9809375 140.61931641 12.75 140.99609375 C-6.23215534 145.77458772 -25.31951373 141.08384627 -41.8125 131.25 C-58.41901792 119.5327107 -69.37260292 103.33327264 -73.390625 83.37890625 C-76.19344795 62.59130268 -70.69805014 44.39273103 -58.9375 27.3125 C-47.96703421 13.04875598 -33.19946992 4.01201853 -15.59765625 0.6328125 C-10.3925239 0.10639045 -5.22888302 0.02590159 0 0 Z " fill="#071B40" transform="translate(353.8125,743.75)"/>
<path d="M0 0 C1.41442383 -0.01836914 1.41442383 -0.01836914 2.85742188 -0.03710938 C12.36438811 -0.05671137 20.72202429 1.48779337 29.375 5.4375 C30.06400391 5.746875 30.75300781 6.05625 31.46289062 6.375 C36.78821841 8.82434963 41.68154849 11.57015033 46.3125 15.1875 C46.99570312 15.71988281 47.67890625 16.25226562 48.3828125 16.80078125 C61.77955969 27.87984024 70.79568832 44.51606432 72.98828125 61.71484375 C74.85084038 81.66442282 70.0806598 100.22516847 57.1875 115.875 C48.63214917 125.77680984 38.49698251 132.47138854 26.3125 137.1875 C25.25804687 137.60128906 24.20359375 138.01507812 23.1171875 138.44140625 C5.88119431 144.28860489 -12.63964893 142.33015899 -28.8125 134.5 C-46.57641137 125.43660967 -58.87201856 111.16678641 -65.65234375 92.4609375 C-71.55578115 73.79270905 -69.69395249 55.18734746 -60.87304688 37.91577148 C-58.00371329 32.52665788 -54.79445676 27.72436091 -50.6875 23.1875 C-50.11902344 22.5275 -49.55054688 21.8675 -48.96484375 21.1875 C-36.16326145 7.27155491 -18.67317788 0.01250715 0 0 Z " fill="#071B40" transform="translate(900.6875,743.8125)"/>
<path d="M0 0 C1.30070385 -0.01104769 2.60140771 -0.02209538 3.94152683 -0.03347784 C5.38836809 -0.0255202 6.83520729 -0.01718249 8.28204441 -0.00850582 C9.81636571 -0.0138289 11.3506818 -0.02089321 12.88498789 -0.02955288 C17.10779434 -0.04823905 21.33025152 -0.04185483 25.55307281 -0.03139985 C30.10463765 -0.02442469 34.65612951 -0.04039294 39.20767307 -0.05339718 C48.12702782 -0.07507087 57.04625516 -0.07490165 65.9656276 -0.06677163 C73.21330971 -0.06047887 80.46095458 -0.06160202 87.70863628 -0.06804371 C89.25430949 -0.06939619 89.25430949 -0.06939619 90.83120843 -0.070776 C92.92437765 -0.07262715 95.01754685 -0.07448971 97.11071605 -0.07636356 C116.75222585 -0.09295382 136.39366388 -0.08421246 156.03516937 -0.06737798 C174.01501019 -0.05268053 191.99468391 -0.0673079 209.97450321 -0.09614814 C228.42438472 -0.12552259 246.87418905 -0.13652008 265.32409292 -0.12696594 C267.40998684 -0.12594336 269.49588077 -0.12494875 271.58177471 -0.12398243 C272.60814022 -0.12350604 273.63450573 -0.12302965 274.69197322 -0.12253882 C281.9322921 -0.12037208 289.17253813 -0.13019263 296.41284084 -0.14475346 C305.23457496 -0.16224673 314.05609599 -0.16220277 322.87782162 -0.1394018 C327.38076691 -0.12823208 331.88333636 -0.12515854 336.38626575 -0.14370251 C340.50627644 -0.16045151 344.62558189 -0.15423287 348.74554641 -0.12948572 C350.23810037 -0.12458353 351.73071062 -0.12816938 353.22321772 -0.14097316 C355.24822129 -0.15709506 357.27340985 -0.13955483 359.29838562 -0.12025452 C360.98735684 -0.11984998 360.98735684 -0.11984998 362.71044868 -0.11943728 C366.70216494 0.71250053 368.22957397 2.33380771 370.71211338 5.50615788 C370.77461338 9.13115788 370.77461338 9.13115788 369.71211338 12.50615788 C367.42933051 14.80794387 366.06937267 15.45932586 362.83464718 15.88335603 C361.70828665 15.88438516 360.58192612 15.88541429 359.42143345 15.88647461 C358.1201129 15.89491455 356.81879234 15.90335449 355.47803783 15.91205019 C354.0305085 15.9062547 352.58298029 15.90017366 351.13545322 15.89383793 C349.60042207 15.89800919 348.06539399 15.90348556 346.53037167 15.91015774 C342.30568492 15.92465831 338.0811925 15.92035332 333.8564949 15.91299093 C329.30291677 15.90827296 324.74938152 15.92075687 320.19581699 15.93100834 C311.27280447 15.94822821 302.34986227 15.94902982 293.42683744 15.94379544 C286.17676834 15.93975871 278.92672006 15.94119136 271.67665195 15.94654369 C270.13054566 15.94766633 270.13054566 15.94766633 268.55320489 15.94881164 C266.45946995 15.95034307 264.36573501 15.95188141 262.27200007 15.95342661 C242.62576344 15.96716298 222.9795666 15.96170579 203.33333087 15.95024139 C185.34637127 15.94030603 167.35951449 15.95325292 149.37257075 15.97717559 C130.91705155 16.00153714 112.4615803 16.01118183 94.00604534 16.00452286 C83.63921843 16.00102431 73.27247065 16.0033046 62.90565586 16.02077389 C54.0813593 16.03545904 45.25719758 16.03617969 36.43290377 16.01870298 C31.92810318 16.0101604 27.42354386 16.00812241 22.91875553 16.02335453 C18.798272 16.03711509 14.67823838 16.0325509 10.55778146 16.01311529 C9.06389762 16.00932827 7.56997848 16.01235431 6.07612586 16.02272695 C4.05171679 16.03578853 2.02718695 16.02199668 0.00279331 16.00672913 C-1.68674748 16.00656812 -1.68674748 16.00656812 -3.41042042 16.00640386 C-6.96409922 15.38859867 -8.14629151 14.36600335 -10.28788662 11.50615788 C-10.84152165 7.63071268 -11.03608625 5.50502353 -8.64962953 2.31904274 C-5.58712972 -0.03174638 -3.83919982 0.00406312 0 0 Z " fill="#091C41" transform="translate(447.28788661956787,809.493842124939)"/>
<path d="M0 0 C2.91668412 3.16917739 5.03323604 6.59721201 7.1015625 10.359375 C7.95234375 11.89561523 7.95234375 11.89561523 8.8203125 13.46289062 C9.71363281 15.09000977 9.71363281 15.09000977 10.625 16.75 C14.66976704 24.04980167 18.72455053 31.33252014 23 38.5 C27.73789287 46.46060701 32.24494466 54.54524921 36.75561523 62.63623047 C40.30600098 68.99695684 43.89684282 75.33002825 47.5625 81.625 C53.81131798 92.3585881 59.90268658 103.17984921 66 114 C68.10294315 117.72985821 70.20709245 121.45903231 72.3125 125.1875 C72.84157959 126.1244873 73.37065918 127.06147461 73.91577148 128.02685547 C78.56771961 136.25525291 83.26253084 144.45895966 87.96054077 152.66110229 C92.73302857 160.99590066 97.45044634 169.35979238 102.125 177.75 C106.69590192 185.95403337 111.36583375 194.09129682 116.125 202.1875 C121.07470863 210.6089838 125.82731227 219.11309011 130.46142578 227.71166992 C134.16912514 234.55858744 138.0501717 241.29025209 142 248 C147.02648594 256.54090039 151.86982723 265.15757834 156.57739258 273.87792969 C161.55166839 283.07435137 166.74722051 292.14039412 171.9753418 301.19433594 C174.13002672 304.99134563 174.3097974 307.58538706 174 312 C173 313.9375 173 313.9375 171 315 C166.01457227 315.98073988 166.01457227 315.98073988 163 315 C161.50268555 313.35571289 161.50268555 313.35571289 160.13671875 311.16015625 C159.36726929 309.93014893 159.36726929 309.93014893 158.58227539 308.67529297 C155.84978227 304.05522514 153.21462526 299.38901255 150.625 294.6875 C149.3904235 292.46423224 148.15470227 290.24159985 146.91796875 288.01953125 C146.27778809 286.8692041 145.63760742 285.71887695 144.97802734 284.53369141 C141.67654562 278.62169772 138.30446425 272.74985099 134.9375 266.875 C128.44232633 255.53435019 121.99246366 244.16890351 115.57226562 232.78564453 C113.98259788 229.96916799 112.39018042 227.15426386 110.796875 224.33984375 C101.83943927 208.51395685 101.83943927 208.51395685 97.5625 200.83984375 C91.82334138 190.5440631 86.03365833 180.28831633 80.0625 170.125 C74.37879139 160.44903913 68.89209812 150.67444191 63.46289062 140.85375977 C58.26847104 131.46213589 52.96981275 122.13488554 47.62353516 112.82910156 C44.49071637 107.36998817 41.37159834 101.90303436 38.25 96.4375 C36.88294202 94.04419682 35.51575084 91.65096979 34.1484375 89.2578125 C33.80631729 88.65900269 33.46419708 88.06019287 33.11170959 87.4432373 C31.05346163 83.84141677 28.99298085 80.2408845 26.93061829 76.64141846 C19.54198183 63.74576855 12.18539559 50.83433646 4.96777344 37.84179688 C2.269936 32.99727626 -0.46424638 28.18526383 -3.31640625 23.4296875 C-3.83356201 22.562229 -4.35071777 21.69477051 -4.88354492 20.80102539 C-5.84492311 19.19694487 -6.81698649 17.59919657 -7.80200195 16.00952148 C-10.27771107 11.87109995 -11.73218175 8.97735676 -11 4 C-8.07075041 -0.45245938 -5.11843736 -0.822606 0 0 Z " fill="#0B1C41" transform="translate(683,430)"/>
<path d="M0 0 C3.1875 0.4375 3.1875 0.4375 6.0625 2.625 C8.45316725 5.78911842 8.57455277 6.62149185 8.1875 10.4375 C7.33984375 12.48852539 7.33984375 12.48852539 6.125 14.53515625 C5.66641602 15.32156494 5.20783203 16.10797363 4.73535156 16.91821289 C4.22456055 17.77020264 3.71376953 18.62219238 3.1875 19.5 C2.07756129 21.39550336 0.96821699 23.29135487 -0.140625 25.1875 C-0.73681641 26.19941406 -1.33300781 27.21132813 -1.94726562 28.25390625 C-4.86005386 33.22547151 -7.70853581 38.23338859 -10.55990601 43.24035645 C-12.25714039 46.219157 -13.95884429 49.19540207 -15.66015625 52.171875 C-16.00214554 52.77038269 -16.34413483 53.36889038 -16.69648743 53.98553467 C-18.76574628 57.60682128 -20.83622127 61.22740985 -22.90759277 64.8474884 C-24.60542655 67.8147837 -26.30278224 70.78235232 -28 73.75 C-28.33380676 74.33359283 -28.66761353 74.91718567 -29.01153564 75.51846313 C-33.51448595 83.39268723 -37.98709736 91.28345973 -42.4375 99.1875 C-46.7798161 106.89893508 -51.20678825 114.5557313 -55.6875 122.1875 C-61.32051563 131.78750524 -66.75726848 141.48525817 -72.13623047 151.22949219 C-76.44329249 159.01623328 -80.84503608 166.74178653 -85.3125 174.4375 C-91.12407644 184.45130493 -96.78812357 194.53901938 -102.3918457 204.67041016 C-108.1003362 214.98334464 -113.93939566 225.2177022 -119.8125 235.4375 C-121.77293708 238.85296441 -123.73118933 242.26967041 -125.6875 245.6875 C-126.17903564 246.54609619 -126.67057129 247.40469238 -127.17700195 248.28930664 C-131.0587439 255.0847078 -134.8765898 261.91469223 -138.6875 268.75 C-143.50400254 277.38026572 -148.39616245 285.96230363 -153.375 294.5 C-153.94653809 295.48073486 -154.51807617 296.46146973 -155.10693359 297.47192383 C-163.94721534 312.57221534 -163.94721534 312.57221534 -166.8125 315.4375 C-170.1875 315.875 -170.1875 315.875 -173.8125 315.4375 C-176.3125 313.3125 -176.3125 313.3125 -177.8125 310.4375 C-177.45254816 305.93207037 -176.13077014 302.69876825 -173.92578125 298.7890625 C-173.32411133 297.71342041 -172.72244141 296.63777832 -172.10253906 295.52954102 C-171.44995117 294.38541748 -170.79736328 293.24129395 -170.125 292.0625 C-169.44569208 290.85702567 -168.76698983 289.65120985 -168.08886719 288.44506836 C-163.08907015 279.57769948 -157.96245929 270.78413177 -152.80395508 262.00830078 C-149.20370679 255.87122456 -145.71127879 249.68819957 -142.3125 243.4375 C-138.36061215 236.16957666 -134.25548441 229.0064437 -130.0625 221.875 C-123.05943197 209.95343104 -116.34698965 197.88055395 -109.66064453 185.77929688 C-101.64772268 171.29040992 -93.52265299 156.88003817 -85.13696289 142.60351562 C-80.04766105 133.90861132 -75.15226991 125.11220497 -70.27758789 116.2956543 C-62.7761002 102.73411067 -55.04921865 89.30651923 -47.29614258 75.88769531 C-46.66216553 74.79038086 -46.02818848 73.69306641 -45.375 72.5625 C-44.74166748 71.46647461 -44.10833496 70.37044922 -43.45581055 69.24121094 C-39.30906936 62.05614256 -35.20040303 54.8507523 -31.125 47.625 C-30.5976123 46.69010742 -30.07022461 45.75521484 -29.52685547 44.79199219 C-29.00494629 43.86676758 -28.48303711 42.94154297 -27.9453125 41.98828125 C-4.66771466 0.72608895 -4.66771466 0.72608895 0 0 Z " fill="#0A1D41" transform="translate(574.8125,429.5625)"/>
<path d="M0 0 C2 3 2 3 1.625 5.1875 C1.41875 5.785625 1.2125 6.38375 1 7 C-0.32 7.33 -1.64 7.66 -3 8 C-3.103125 8.763125 -3.20625 9.52625 -3.3125 10.3125 C-4.04364039 13.17059424 -4.76951913 14.15742885 -7 16 C-7 12.11908033 -5.34682267 9.60326704 -3.5 6.3125 C-3.16613281 5.70599609 -2.83226562 5.09949219 -2.48828125 4.47460938 C-1.664463 2.97996769 -0.83296549 1.48956329 0 0 Z " fill="#233054" transform="translate(510,536)"/>
<path d="M0 0 C4.13782924 4.27575688 5.05944297 8.31953056 6 14 C3.03340143 10.44008172 0.618652 6.34777457 -1 2 C-0.67 1.34 -0.34 0.68 0 0 Z " fill="#142249" transform="translate(743,560)"/>
<path d="M0 0 C-1 2 -1 2 -3.28515625 2.8515625 C-4.65994141 3.23441406 -4.65994141 3.23441406 -6.0625 3.625 C-6.98160156 3.88539063 -7.90070313 4.14578125 -8.84765625 4.4140625 C-9.55792969 4.60742188 -10.26820313 4.80078125 -11 5 C-11.33 4.01 -11.66 3.02 -12 2 C-10.56656 1.46809459 -9.12804633 0.94984742 -7.6875 0.4375 C-6.48673828 0.00244141 -6.48673828 0.00244141 -5.26171875 -0.44140625 C-3 -1 -3 -1 0 0 Z " fill="#16234B" transform="translate(332,748)"/>
<path d="M0 0 C0.33 0 0.66 0 1 0 C0.58894145 5.24099655 -0.24039194 8.24039194 -4 12 C-4.66 12 -5.32 12 -6 12 C-4.43358249 7.69235185 -2.31663844 3.93828536 0 0 Z " fill="#1A284F" transform="translate(553,461)"/>
<path d="M0 0 C3.63 1.65 7.26 3.3 11 5 C11 5.33 11 5.66 11 6 C6.55129785 6.39253254 3.85756507 5.15305957 0 3 C0 2.01 0 1.02 0 0 Z " fill="#101E48" transform="translate(929,749)"/>
<path d="M0 0 C0.99 0.33 1.98 0.66 3 1 C1.35 2.98 -0.3 4.96 -2 7 C-2.66 6.01 -3.32 5.02 -4 4 C-2.68 2.68 -1.36 1.36 0 0 Z " fill="#1D2B4E" transform="translate(304,761)"/>
<path d="M0 0 C3.3 0.99 6.6 1.98 10 3 C10 3.33 10 3.66 10 4 C7.36 4 4.72 4 2 4 C1.34 2.68 0.68 1.36 0 0 Z " fill="#192346" transform="translate(844,741)"/>
<path d="M0 0 C0.66 0.99 1.32 1.98 2 3 C0.95125002 5.62187494 0.35068687 6.79371361 -2.125 8.25 C-2.74375 8.4975 -3.3625 8.745 -4 9 C-2.94124926 5.59687262 -1.99097846 2.98646769 0 0 Z " fill="#DADDE6" transform="translate(509,568)"/>
<path d="M0 0 C0.94875 0.04125 1.8975 0.0825 2.875 0.125 C2.875 1.115 2.875 2.105 2.875 3.125 C0.235 2.795 -2.405 2.465 -5.125 2.125 C-3.125 0.125 -3.125 0.125 0 0 Z " fill="#223054" transform="translate(337.125,881.875)"/>
<path d="M0 0 C1.32 0.66 2.64 1.32 4 2 C0.86501708 3.85776765 -1.37471432 4.20140476 -5 4 C-3.35 2.68 -1.7 1.36 0 0 Z " fill="#243054" transform="translate(870,751)"/>
<path d="M0 0 C1.60031344 3.20062687 0.03173691 5.72271806 -1 9 C-1.66 9 -2.32 9 -3 9 C-3.36923077 3.46153846 -3.36923077 3.46153846 -1.5 1.125 C-1.005 0.75375 -0.51 0.3825 0 0 Z " fill="#192445" transform="translate(675,431)"/>
<path d="M0 0 C0.66 0.66 1.32 1.32 2 2 C1.01 3.98 0.02 5.96 -1 8 C-1.66 6.68 -2.32 5.36 -3 4 C-2.01 2.68 -1.02 1.36 0 0 Z " fill="#E9EBEF" transform="translate(521,513)"/>
</svg>
